<?xml version="1.0" encoding="UTF-8" standalone="no"?>
<!DOCTYPE svg PUBLIC "-//W3C//DTD SVG 1.1//EN" "http://www.w3.org/Graphics/SVG/1.1/DTD/svg11.dtd">
<svg width="100%" height="100%" viewBox="0 0 300 250" version="1.1" xmlns="http://www.w3.org/2000/svg" xmlns:xlink="http://www.w3.org/1999/xlink" xml:space="preserve" style="fill-rule:evenodd;clip-rule:evenodd;stroke-linecap:round;stroke-linejoin:round;stroke-miterlimit:1.5;">
    <g transform="matrix(1,0,0,1,0,-25)">
        <g transform="matrix(1.174,-0.281549,0.281549,1.174,-62.2373,37.5265)">
            <path d="M100.334,108.224C83.243,81.85 66.365,73.561 45.645,73.507C43.042,91.5 50.633,108.76 85.63,130.403" style="fill:rgb(243,243,243);stroke:black;stroke-width:1.73px;"/>
        </g>
        <g transform="matrix(1.19617,-0.163486,0.163486,1.19617,-56.2977,3.57431)">
            <path d="M100.334,108.224C83.243,81.85 66.365,73.561 45.645,73.507C44.644,86.31 45.424,95.02 64.79,109.019" style="fill:rgb(243,243,243);stroke:black;stroke-width:1.73px;"/>
        </g>
        <g transform="matrix(1.20729,0,0,1.20729,-36.3115,-33.2309)">
            <path d="M100.334,108.224C83.243,81.85 66.365,73.561 45.645,73.507C44.644,86.31 45.424,95.02 64.79,109.019" style="fill:rgb(243,243,243);stroke:black;stroke-width:1.73px;"/>
        </g>
    </g>
    <g transform="matrix(-1.20729,0,0,1.20729,331.07,-56.1643)">
        <g transform="matrix(0.972427,-0.233208,0.233208,0.972427,-25.7987,56.8968)">
            <path d="M100.334,108.224C83.243,81.85 66.365,73.561 45.645,73.507C43.042,91.5 50.633,108.76 85.63,130.403" style="fill:rgb(243,243,243);stroke:black;stroke-width:1.73px;"/>
        </g>
        <g transform="matrix(0.990789,-0.135416,0.135416,0.990789,-20.8789,28.7741)">
            <path d="M100.334,108.224C83.243,81.85 66.365,73.561 45.645,73.507C44.644,86.31 45.424,95.02 64.79,109.019" style="fill:rgb(243,243,243);stroke:black;stroke-width:1.73px;"/>
        </g>
        <g transform="matrix(1,0,0,1,-4.32425,-1.71176)">
            <path d="M100.334,108.224C83.243,81.85 66.365,73.561 45.645,73.507C44.644,86.31 45.424,95.02 64.79,109.019" style="fill:rgb(243,243,243);stroke:black;stroke-width:1.73px;"/>
        </g>
    </g>
    <g transform="matrix(1.20729,0,0,1.20729,-67.4387,-69.9331)">
        <path d="M180.107,114.069C196.716,82.512 229.934,82.512 246.543,98.291C263.153,114.069 263.153,145.626 246.543,177.183C234.917,200.851 205.021,224.519 180.107,240.297C155.193,224.519 125.297,200.851 113.671,177.183C97.062,145.626 97.062,114.069 113.671,98.291C130.28,82.512 163.498,82.512 180.107,114.069Z" style="fill:white;stroke:black;stroke-width:1.73px;"/>
    </g>
</svg>
